PathFileType  4	(X/Y/Z) C:\Users\antoi\Documents\MyRepositories\mobilecap\ResultsAnalysis
DataRate	CameraRate	NumFrames	NumMarkers	Units	OrigDataRate	OrigDataStartFrame	OrigNumFrames
100.0	100.0	4	51	mm	100.0	226	901
Frame#	Time	r_knee			r_shank_antsup			r_ankle			r_calc			r_5meta			r_toe			L_knee			L_shank_antsup			L_ankle			L_calc			L_5meta			L_toe			r_sh2			r_sh3			r_sh4			L_sh2			L_sh3			r_thigh1			r_thigh2			r_thigh3			r_thigh4			r_thigh5			L_thigh1			L_thigh2			L_thigh3			L_thigh4			r.ASIS			r.PSIS			L.ASIS			L.PSIS			C7			R_Shoulder			L_Shoulder			R_Sternum			L_Sternum			R_humerus			R_elbow_med			R_elbow_lat			R_forearm			R_wrist_radius			R_wrist_ulna			L_humerus			L_elbow_med			L_elbow_lat			L_forearm			L_wrist_radius			L_wrist_ulna			R_HJC			L_HJC			R_HJC_reg			L_HJC_reg			
		X1	Y1	Z1	X2	Y2	Z2	X3	Y3	Z3	X4	Y4	Z4	X5	Y5	Z5	X6	Y6	Z6	X7	Y7	Z7	X8	Y8	Z8	X9	Y9	Z9	X10	Y10	Z10	X11	Y11	Z11	X12	Y12	Z12	X13	Y13	Z13	X14	Y14	Z14	X15	Y15	Z15	X16	Y16	Z16	X17	Y17	Z17	X18	Y18	Z18	X19	Y19	Z19	X20	Y20	Z20	X21	Y21	Z21	X22	Y22	Z22	X23	Y23	Z23	X24	Y24	Z24	X25	Y25	Z25	X26	Y26	Z26	X27	Y27	Z27	X28	Y28	Z28	X29	Y29	Z29	X30	Y30	Z30	X31	Y31	Z31	X32	Y32	Z32	X33	Y33	Z33	X34	Y34	Z34	X35	Y35	Z35	X36	Y36	Z36	X37	Y37	Z37	X38	Y38	Z38	X39	Y39	Z39	X40	Y40	Z40	X41	Y41	Z41	X42	Y42	Z42	X43	Y43	Z43	X44	Y44	Z44	X45	Y45	Z45	X46	Y46	Z46	X47	Y47	Z47	X48	Y48	Z48	X49	Y49	Z49	X50	Y50	Z50	X51	Y51	Z51	

226	2.25000000	-216.10372	600.07145	-328.90036	-189.25227	451.87155	-325.13791	-299.92556	102.51970	-303.16662	-359.77450	69.64352	-363.88047	-164.22421	43.57297	-273.59008	-126.71723	74.66581	-323.59139	-266.53907	603.65780	-865.23621	-226.09251	406.30265	-893.17467	-342.24653	117.18432	-928.00224	-396.95427	72.54435	-870.00778	-199.96128	38.49484	-971.60958	-159.65623	73.78673	-914.33600	-208.66733	340.84312	-322.21555	-253.65630	462.84164	-287.70593	-275.21189	353.52457	-275.44642	-302.90799	432.88998	-927.62545	-328.73321	315.56502	-928.10432	-349.45834	858.53863	-322.84757	-273.35237	775.15660	-316.66773	-307.78101	716.12695	-312.34017	-432.47370	787.30822	-350.37908	-354.57819	697.25198	-336.70367	-353.78388	877.96350	-792.11976	-283.39075	769.28154	-829.44561	-449.23173	823.35947	-794.77118	-376.80452	714.72936	-842.76863	-372.42328	1019.99742	-405.09853	-511.39218	1132.58039	-504.16793	-371.04818	996.87420	-677.38810	-507.20592	1127.91345	-594.83863	-124.55408	1439.33562	-552.41190	-37.36914	1352.73086	-397.38783	-72.58876	1379.98716	-720.28841	-39.96292	1291.40171	-540.89262	-45.52752	1290.74529	-579.87461	48.20633	1128.81976	-335.55335	23.91770	969.66163	-351.57426	52.67538	1009.47925	-275.54965	212.90691	1091.90159	-387.95733	274.71729	1129.34958	-439.29946	294.34305	1100.29127	-426.84675	30.57942	1145.51670	-782.64968	-15.66171	1014.79324	-781.69822	34.51579	1049.95570	-839.79363	194.56976	1114.19087	-726.82409	239.34764	1141.18641	-674.58890	256.54635	1119.80918	-695.19301	-486.14322	974.42773	-440.07367	-487.75823	965.02509	-637.31930	-476.83135	975.77166	-446.70040	-468.52431	966.50954	-626.63151	
227	2.26000000	-213.18466	599.08258	-326.77734	-186.66999	450.90867	-323.47829	-299.88855	102.38937	-302.98100	-359.73718	69.64190	-363.80328	-164.27884	43.28868	-273.46371	-126.75858	74.66388	-323.13002	-265.37235	603.03807	-864.31832	-224.96125	405.81015	-892.78462	-342.14570	117.33002	-927.76981	-396.91063	72.63132	-869.89259	-199.91405	38.61005	-971.44518	-159.65473	73.81787	-914.21753	-206.77625	339.97098	-321.15048	-250.92873	462.10837	-286.09069	-273.22993	352.58037	-273.91346	-301.55692	433.53478	-928.27700	-328.00674	315.79490	-927.81098	-350.32780	855.45766	-319.58577	-272.27724	772.44127	-313.78043	-306.13150	713.84408	-309.43385	-432.29370	782.87766	-346.67007	-352.62169	694.09180	-333.75034	-356.14378	875.59942	-789.00081	-284.13494	768.31756	-827.55082	-450.71512	819.56175	-791.99601	-376.72054	712.57625	-841.28143	-374.81757	1013.62849	-400.81318	-513.48969	1126.39139	-500.28224	-374.37553	989.37061	-673.72897	-509.42914	1121.45092	-590.80655	-122.10468	1427.75088	-549.65096	-34.70910	1340.16920	-395.13345	-71.14854	1367.48011	-717.26006	-37.75046	1280.93733	-542.67951	-46.75614	1276.57863	-576.07843	52.38251	1117.60586	-333.41201	30.68748	957.72739	-348.92358	57.94591	998.08125	-273.71218	217.50566	1082.04493	-385.97997	278.99104	1120.09040	-437.25564	298.89845	1091.20656	-424.89067	33.31668	1134.58963	-779.42295	-11.89920	1003.45571	-778.38735	37.81389	1038.83454	-836.50825	198.05278	1104.16548	-724.45690	242.99846	1131.61022	-672.53083	260.17913	1110.21869	-693.12334	-488.84153	968.42681	-435.62438	-491.07919	958.30258	-632.82829	-479.82343	969.30972	-442.27303	-471.73228	959.46532	-622.65849	
228	2.27000000	-210.16602	598.02895	-324.82000	-183.99752	449.94110	-321.97472	-299.74516	102.32018	-302.87573	-359.63249	69.66446	-363.81774	-164.27983	43.08197	-273.34405	-126.92669	74.81457	-322.64127	-264.09475	602.44004	-863.33896	-223.82116	405.38444	-892.36406	-342.18990	117.41855	-927.26867	-396.95815	72.63062	-869.63997	-199.91283	38.82751	-971.30094	-159.74457	73.98065	-913.99260	-204.79681	339.13258	-320.15475	-248.17059	461.46417	-284.43261	-271.59001	352.42362	-272.46735	-300.13558	434.09835	-928.48647	-327.24730	315.97595	-927.45514	-351.18852	852.22583	-316.42036	-271.77976	770.93206	-310.82861	-304.48586	711.39573	-306.69248	-432.07663	778.43707	-343.01278	-350.58048	690.65066	-331.16624	-358.46410	873.14391	-785.83143	-284.83480	767.27285	-825.46234	-452.23716	815.79430	-789.23021	-376.73719	710.24530	-839.31213	-376.89695	1006.91162	-396.66690	-515.49213	1120.02144	-496.47004	-377.47853	981.65099	-669.72345	-511.53826	1114.86024	-586.91831	-119.80852	1416.16017	-546.97270	-32.09988	1327.79437	-392.96707	-69.81094	1354.98157	-714.42428	-36.03264	1269.96318	-543.28376	-47.39468	1263.20522	-572.83742	56.28431	1106.55636	-331.33351	36.50537	945.85181	-346.57378	63.08692	986.85801	-271.58866	221.81164	1072.20003	-383.94351	283.02991	1110.85119	-435.25963	303.18693	1082.01715	-423.10407	35.94202	1123.54275	-776.26020	-8.27247	992.01566	-775.04735	41.01641	1027.65690	-833.33958	201.36127	1094.12619	-722.16295	246.51646	1121.96275	-670.65971	263.65188	1100.53428	-691.20680	-491.37210	962.22123	-431.18166	-494.18857	951.35791	-628.33897	-482.48952	962.61149	-437.94560	-474.59794	952.31072	-618.46708	
229	2.28000000	-207.09362	596.86751	-323.12577	-181.24229	448.90022	-320.70890	-299.55376	102.32291	-302.94676	-359.46243	69.71232	-363.91587	-164.18688	43.10262	-273.12645	-127.00616	74.89593	-322.35134	-262.77420	601.85068	-862.28754	-222.68434	405.01855	-892.07417	-342.29488	117.41506	-926.57723	-397.03707	72.54922	-869.30463	-199.92104	39.08743	-971.14094	-159.78622	74.25368	-913.71918	-202.85343	338.33224	-319.29556	-245.39778	460.78376	-282.85980	-269.71828	352.10691	-271.51145	-298.86090	434.15907	-927.83778	-326.56512	316.00012	-926.93672	-351.99423	848.86493	-313.16446	-271.41381	769.44902	-308.00910	-302.89373	708.82031	-304.00785	-431.79057	773.91555	-339.46908	-348.66432	687.21842	-328.61367	-360.80669	870.56772	-782.61564	-285.65154	766.21246	-823.17595	-453.85486	811.95696	-786.36325	-376.78712	707.80875	-837.16804	-379.11467	1000.04078	-392.84587	-517.41275	1113.53296	-492.65954	-380.48232	973.71510	-665.36837	-513.49624	1108.16942	-583.03297	-117.69422	1404.58901	-544.21383	-29.56553	1315.56516	-390.94531	-68.37958	1342.62423	-711.75216	-35.67800	1257.54022	-540.75760	-47.10910	1250.86363	-570.22048	60.00239	1095.62346	-329.38408	40.99706	934.40084	-344.57004	68.01822	975.85199	-269.62240	225.89195	1062.46685	-381.92132	286.87375	1101.63142	-433.26650	307.20722	1072.80840	-421.35183	38.41623	1112.46078	-773.24625	-4.77189	980.50682	-771.72857	44.10286	1016.44724	-830.28992	204.54515	1084.10201	-720.01441	249.83909	1112.21596	-668.71885	266.94228	1090.74753	-689.26694	-493.98727	955.91886	-426.75311	-497.26812	944.29778	-623.85991	-485.12170	955.89510	-433.91714	-477.31165	945.19934	-614.13581	
